# xmcd
#
# Track frame offsets: 
#        150
#        20105
#        41434
#        56810
#        75279
#
# Disc length: 1274 seconds
#
# Revision: 0
# Processed by: cddbd v1.4PL0 Copyright (c) Steve Scherf et al.
# Submitted via: ExactAudioCopy v0.90b4
#
DISCID=3504f805
DTITLE=Sfakianakis Notis - around the world
DYEAR=1999
DGENRE=À·˙ÍÔ
TTITLE0=Gipsies' Day (radio mix)
TTITLE1=Gipsies' Day (original)
TTITLE2=Lullaby
TTITLE3=Aman (original)
TTITLE4=Aman (ethnic funk)
EXTD=
EXTT0=
EXTT1=
EXTT2=
EXTT3=
EXTT4=
PLAYORDER=
